<?xml version="1.0" encoding="UTF-8" standalone="no"?>
<svg width="1120px" height="1120px" viewBox="0 0 1120 1120" version="1.1" xmlns="http://www.w3.org/2000/svg" xmlns:xlink="http://www.w3.org/1999/xlink">
    <!-- Generator: Sketch 39.1 (31720) - http://www.bohemiancoding.com/sketch -->
    <title>Artboard</title>
    <desc>Created with Sketch.</desc>
    <defs>
        <linearGradient x1="100%" y1="96.462016%" x2="5.89805982e-15%" y2="-1.11022302e-14%" id="linearGradient-1">
            <stop stop-color="#573D7D" offset="0%"></stop>
            <stop stop-color="#FB4C7F" offset="100%"></stop>
        </linearGradient>
        <path d="M480,0 C215.323927,0 0,215.327489 0,479.997704 C0,744.672511 215.323927,960 480,960 C744.676073,960 960,744.672511 960,479.997704 C960,215.327489 744.676073,0 480,0 M480,137.739071 C669.024822,137.739071 822.260271,290.973787 822.260271,479.997704 C822.260271,669.026213 669.024822,822.260929 480,822.260929 C290.975178,822.260929 137.739729,669.026213 137.739729,479.997704 C137.739729,290.973787 290.975178,137.739071 480,137.739071" id="path-2"></path>
        <filter x="-50%" y="-50%" width="200%" height="200%" filterUnits="objectBoundingBox" id="filter-3">
            <feGaussianBlur stdDeviation="1.5" in="SourceAlpha" result="shadowBlurInner1"></feGaussianBlur>
            <feOffset dx="0" dy="1" in="shadowBlurInner1" result="shadowOffsetInner1"></feOffset>
            <feComposite in="shadowOffsetInner1" in2="SourceAlpha" operator="arithmetic" k2="-1" k3="1" result="shadowInnerInner1"></feComposite>
            <feColorMatrix values="0 0 0 0 0   0 0 0 0 0   0 0 0 0 0  0 0 0 0.8 0" type="matrix" in="shadowInnerInner1"></feColorMatrix>
        </filter>
    </defs>
    <g id="Page-1" stroke="none" stroke-width="1" fill="none" fill-rule="evenodd">
        <g id="Artboard">
            <g id="Group" transform="translate(80.000000, 80.000000)">
                <g id="Group-6" transform="translate(167.556468, 165.585216)" stroke="#FFFFFF" stroke-width="0.5">
                    <path d="M313.429158,626.858316 C486.531302,626.858316 626.858316,486.531302 626.858316,313.429158 C626.858316,229.597172 593.946193,153.452223 540.338253,97.2106209 C483.252773,37.3206322 402.699316,0 313.429158,0 C140.327014,0 0,140.327014 0,313.429158 C0,486.531302 140.327014,626.858316 313.429158,626.858316 Z" id="Stroke"></path>
                </g>
                <g id="Shape" opacity="0.699999988" transform="translate(480.000000, 480.000000) rotate(-90.000000) translate(-480.000000, -480.000000) ">
                    <use fill="url(#linearGradient-1)" fill-rule="evenodd" xlink:href="#path-2"></use>
                    <use fill="black" fill-opacity="1" filter="url(#filter-3)" xlink:href="#path-2"></use>
                </g>
            </g>
        </g>
    </g>
</svg>