<?xml version="1.0" encoding="utf-8"?>
<!-- Generator: Adobe Illustrator 20.0.0, SVG Export Plug-In . SVG Version: 6.00 Build 0)  -->
<svg version="1.1" id="Layer_1" xmlns="http://www.w3.org/2000/svg" xmlns:xlink="http://www.w3.org/1999/xlink" x="0px" y="0px"
	 width="170px" height="94px" viewBox="0 0 170 94" style="enable-background:new 0 0 170 94;" xml:space="preserve">
<style type="text/css">
	.st0{clip-path:url(#SVGID_2_);}
	.st1{clip-path:url(#SVGID_4_);fill:#3C3852;}
	.st2{clip-path:url(#SVGID_6_);}
	.st3{clip-path:url(#SVGID_8_);fill:#3C3852;}
	.st4{clip-path:url(#SVGID_10_);}
	.st5{clip-path:url(#SVGID_12_);fill:#3C3852;}
</style>
<title>Group 5</title>
<g>
	<defs>
		<path id="SVGID_1_" d="M56.5,42.4C56.5,42.4,56.5,42.4,56.5,42.4C56.5,42.4,56.4,42.4,56.5,42.4l-0.1,37.4c0,0,0,0.1,0.1,0.1
			c0,0,0,0,0,0l9.3-9.3c0,0,0,0,0,0V51.8c0,0,0,0,0,0L56.5,42.4z"/>
	</defs>
	<clipPath id="SVGID_2_">
		<use xlink:href="#SVGID_1_"  style="overflow:visible;"/>
	</clipPath>
	<g class="st0">
		<defs>
			<rect id="SVGID_3_" x="8" y="-631.2" width="913.1" height="1027.3"/>
		</defs>
		<clipPath id="SVGID_4_">
			<use xlink:href="#SVGID_3_"  style="overflow:visible;"/>
		</clipPath>
		<rect x="50.7" y="36.7" class="st1" width="20.8" height="48.9"/>
	</g>
</g>
<g>
	<defs>
		<path id="SVGID_5_" d="M56.5,0C56.5,0,56.5,0,56.5,0C56.5,0,56.4,0,56.5,0l-0.1,37.4c0,0,0,0.1,0.1,0.1c0,0,0,0,0,0l9.3-9.3
			c0,0,0-18.8,0-18.8C65.8,9.3,56.5,0,56.5,0z"/>
	</defs>
	<clipPath id="SVGID_6_">
		<use xlink:href="#SVGID_5_"  style="overflow:visible;"/>
	</clipPath>
	<g class="st2">
		<defs>
			<rect id="SVGID_7_" x="8" y="-631.2" width="913.1" height="1027.3"/>
		</defs>
		<clipPath id="SVGID_8_">
			<use xlink:href="#SVGID_7_"  style="overflow:visible;"/>
		</clipPath>
		<rect x="50.7" y="-5.7" class="st3" width="20.8" height="48.9"/>
	</g>
</g>
<g>
	<defs>
		<path id="SVGID_9_" d="M42.4,19.3C42.4,19.3,42.4,19.3,42.4,19.3C42.3,19.3,42.3,19.3,42.4,19.3l-0.1,74.6c0,0,0,0.1,0.1,0.1
			c0,0,0,0,0,0l9.3-9.3c0,0,0,0,0,0v-56c0,0,0,0,0,0L42.4,19.3z"/>
	</defs>
	<clipPath id="SVGID_10_">
		<use xlink:href="#SVGID_9_"  style="overflow:visible;"/>
	</clipPath>
	<g class="st4">
		<defs>
			<rect id="SVGID_11_" x="8" y="-631.2" width="913.1" height="1027.3"/>
		</defs>
		<clipPath id="SVGID_12_">
			<use xlink:href="#SVGID_11_"  style="overflow:visible;"/>
		</clipPath>
		<rect x="36.6" y="13.6" class="st5" width="20.8" height="86.1"/>
	</g>
</g>
</svg>
