<?xml version="1.0" encoding="utf-8"?>
<!-- Generator: Adobe Illustrator 20.0.0, SVG Export Plug-In . SVG Version: 6.00 Build 0)  -->
<svg version="1.1" id="Layer_1" xmlns="http://www.w3.org/2000/svg" xmlns:xlink="http://www.w3.org/1999/xlink" x="0px" y="0px"
	 width="16px" height="16px" viewBox="0 0 16 16" style="enable-background:new 0 0 16 16;" xml:space="preserve">
<style type="text/css">
	.st0{clip-path:url(#SVGID_2_);}
	.st1{clip-path:url(#SVGID_4_);}
	.st2{clip-path:url(#SVGID_6_);}
	.st3{clip-path:url(#SVGID_8_);}
	.st4{clip-path:url(#SVGID_10_);}
	.st5{clip-path:url(#SVGID_12_);}
</style>
<g>
	<defs>
		<path id="SVGID_1_" d="M8.3,7.2C8.3,7.2,8.3,7.2,8.3,7.2C8.3,7.2,8.3,7.2,8.3,7.2l0,6.4c0,0,0,0,0,0c0,0,0,0,0,0L9.9,12
			c0,0,0,0,0,0V8.8c0,0,0,0,0,0L8.3,7.2z"/>
	</defs>
	<use xlink:href="#SVGID_1_"  style="overflow:visible;fill-rule:evenodd;clip-rule:evenodd;"/>
	<clipPath id="SVGID_2_">
		<use xlink:href="#SVGID_1_"  style="overflow:visible;"/>
	</clipPath>
	<g class="st0">
		<defs>
			<rect id="SVGID_3_" x="0.1" y="-107.4" width="155.4" height="174.9"/>
		</defs>
		<use xlink:href="#SVGID_3_"  style="overflow:visible;"/>
		<clipPath id="SVGID_4_">
			<use xlink:href="#SVGID_3_"  style="overflow:visible;"/>
		</clipPath>
		<rect x="7.3" y="6.2" class="st1" width="3.5" height="8.3"/>
	</g>
</g>
<g>
	<defs>
		<path id="SVGID_5_" d="M8.3,0C8.3,0,8.3,0,8.3,0C8.3,0,8.3,0,8.3,0l0,6.4c0,0,0,0,0,0c0,0,0,0,0,0l1.6-1.6c0,0,0-3.2,0-3.2
			C9.9,1.6,8.3,0,8.3,0z"/>
	</defs>
	<use xlink:href="#SVGID_5_"  style="overflow:visible;fill-rule:evenodd;clip-rule:evenodd;"/>
	<clipPath id="SVGID_6_">
		<use xlink:href="#SVGID_5_"  style="overflow:visible;"/>
	</clipPath>
	<g class="st2">
		<defs>
			<rect id="SVGID_7_" x="0.1" y="-107.4" width="155.4" height="174.9"/>
		</defs>
		<use xlink:href="#SVGID_7_"  style="overflow:visible;"/>
		<clipPath id="SVGID_8_">
			<use xlink:href="#SVGID_7_"  style="overflow:visible;"/>
		</clipPath>
		<rect x="7.3" y="-1" class="st3" width="3.5" height="8.3"/>
	</g>
</g>
<g>
	<defs>
		<path id="SVGID_9_" d="M5.9,3.3C5.9,3.3,5.9,3.3,5.9,3.3C5.9,3.3,5.9,3.3,5.9,3.3l0,12.7c0,0,0,0,0,0c0,0,0,0,0,0l1.6-1.6
			c0,0,0,0,0,0V4.9c0,0,0,0,0,0L5.9,3.3z"/>
	</defs>
	<use xlink:href="#SVGID_9_"  style="overflow:visible;fill-rule:evenodd;clip-rule:evenodd;"/>
	<clipPath id="SVGID_10_">
		<use xlink:href="#SVGID_9_"  style="overflow:visible;"/>
	</clipPath>
	<g class="st4">
		<defs>
			<rect id="SVGID_11_" x="0.1" y="-107.4" width="155.4" height="174.9"/>
		</defs>
		<use xlink:href="#SVGID_11_"  style="overflow:visible;"/>
		<clipPath id="SVGID_12_">
			<use xlink:href="#SVGID_11_"  style="overflow:visible;"/>
		</clipPath>
		<rect x="4.9" y="2.3" class="st5" width="3.5" height="14.7"/>
	</g>
</g>
</svg>
