<svg width="48" height="24" viewBox="0 0 48 24" xmlns="http://www.w3.org/2000/svg" xmlns:xlink="http://www.w3.org/1999/xlink"><svg width="24" height="24" viewBox="-2 -2 24 24"><title>Group 3</title><g fill="#FFF" fill-rule="evenodd"><path d="M17.5 0h-15A2.507 2.507 0 0 0 0 2.5v15C0 18.875 1.125 20 2.5 20h15c1.375 0 2.5-1.125 2.5-2.5v-15C20 1.125 18.875 0 17.5 0m0 .625c1.034 0 1.875.841 1.875 1.875v15a1.877 1.877 0 0 1-1.875 1.875h-15A1.877 1.877 0 0 1 .625 17.5v-15C.625 1.466 1.466.625 2.5.625h15"/><path d="M8.498 15.788h2.392V10h1.596l.21-1.994H10.89l.002-.999c0-.52.05-.799.796-.799h.998V4.212h-1.597c-1.917 0-2.59.968-2.59 2.595v1.197H7.302V10h1.195v5.79z"/></g></svg><svg width="24" height="24" viewBox="-2 -2 24 24" x="24"><title>Group 2</title><g fill="#FFF" fill-rule="evenodd"><path d="M17.5 0h-15A2.507 2.507 0 0 0 0 2.5v15C0 18.875 1.125 20 2.5 20h15c1.375 0 2.5-1.125 2.5-2.5v-15C20 1.125 18.875 0 17.5 0m0 .625c1.034 0 1.875.841 1.875 1.875v15a1.877 1.877 0 0 1-1.875 1.875h-15A1.877 1.877 0 0 1 .625 17.5v-15C.625 1.466 1.466.625 2.5.625h15"/><path d="M7.168 14.95V8.26H4.945v6.69h2.223zM6.056 7.349c.775 0 1.258-.515 1.258-1.157-.014-.656-.483-1.155-1.243-1.155-.761 0-1.258.499-1.258 1.155 0 .643.483 1.157 1.23 1.157h.013zm9.13 7.603v-3.836c0-2.055-1.096-3.011-2.56-3.011-1.18 0-1.708.65-2.003 1.105v-.95H8.4c.03.628 0 6.69 0 6.69h2.224v-3.737c0-.199.014-.399.073-.542.16-.399.527-.813 1.14-.813.806 0 1.128.614 1.128 1.513v3.58l2.223-.001z"/></g></svg></svg>