<?xml version="1.0" encoding="UTF-8" standalone="no"?>
<svg width="20px" height="20px" viewBox="0 0 20 20" version="1.1" xmlns="http://www.w3.org/2000/svg" xmlns:xlink="http://www.w3.org/1999/xlink">
    <!-- Generator: Sketch 39.1 (31720) - http://www.bohemiancoding.com/sketch -->
    <title>Group 3</title>
    <desc>Created with Sketch.</desc>
    <defs></defs>
    <g id="Page-1" stroke="none" stroke-width="1" fill="none" fill-rule="evenodd">
        <g id="cbe-20160908-copy" transform="translate(-935.000000, -749.000000)" fill="#FFFFFF">
            <g id="Group-4" transform="translate(935.000000, 749.000000)">
                <g id="Group-3">
                    <path d="M17.5,0 L2.5,0 C1.125,0 0,1.125 0,2.5 L0,17.5 C0,18.875 1.125,20 2.5,20 L17.5,20 C18.875,20 20,18.875 20,17.5 L20,2.5 C20,1.125 18.875,0 17.5,0 M17.5,0.625 C18.53375,0.625 19.375,1.46625 19.375,2.5 L19.375,17.5 C19.375,18.53375 18.53375,19.375 17.5,19.375 L2.5,19.375 C1.46625,19.375 0.625,18.53375 0.625,17.5 L0.625,2.5 C0.625,1.46625 1.46625,0.625 2.5,0.625 L17.5,0.625" id="Fill-1"></path>
                    <path d="M8.498125,15.788125 L10.89,15.788125 L10.89,9.999375 L12.485625,9.999375 L12.696875,8.005 L10.89,8.005 L10.8925,7.00625 C10.8925,6.48625 10.941875,6.2075 11.688125,6.2075 L12.685625,6.2075 L12.685625,4.211875 L11.089375,4.211875 C9.1725,4.211875 8.498125,5.18 8.498125,6.806875 L8.498125,8.004375 L7.303125,8.004375 L7.303125,9.999375 L8.498125,9.999375 L8.498125,15.788125 Z" id="Fill-3"></path>
                </g>
            </g>
        </g>
    </g>
</svg>