<?xml version="1.0" encoding="UTF-8" standalone="no"?>
<svg width="20px" height="20px" viewBox="0 0 20 20" version="1.1" xmlns="http://www.w3.org/2000/svg" xmlns:xlink="http://www.w3.org/1999/xlink">
    <!-- Generator: Sketch 39.1 (31720) - http://www.bohemiancoding.com/sketch -->
    <title>Group 2</title>
    <desc>Created with Sketch.</desc>
    <defs></defs>
    <g id="Page-1" stroke="none" stroke-width="1" fill="none" fill-rule="evenodd">
        <g id="cbe-20160908-copy" transform="translate(-965.000000, -749.000000)" fill="#FFFFFF">
            <g id="Group-4" transform="translate(935.000000, 749.000000)">
                <g id="Group-2" transform="translate(30.000000, 0.000000)">
                    <path d="M17.5,0 L2.5,0 C1.125,0 0,1.125 0,2.5 L0,17.5 C0,18.875 1.125,20 2.5,20 L17.5,20 C18.875,20 20,18.875 20,17.5 L20,2.5 C20,1.125 18.875,0 17.5,0 M17.5,0.625 C18.53375,0.625 19.375,1.46625 19.375,2.5 L19.375,17.5 C19.375,18.53375 18.53375,19.375 17.5,19.375 L2.5,19.375 C1.46625,19.375 0.625,18.53375 0.625,17.5 L0.625,2.5 C0.625,1.46625 1.46625,0.625 2.5,0.625 L17.5,0.625" id="Fill-1"></path>
                    <path d="M7.168125,14.950625 L7.168125,8.260625 L4.945,8.260625 L4.945,14.950625 L7.168125,14.950625 L7.168125,14.950625 Z M6.05625,7.3475 C6.83125,7.3475 7.314375,6.833125 7.314375,6.19125 C7.3,5.535 6.83125,5.035625 6.070625,5.035625 C5.31,5.035625 4.813125,5.535 4.813125,6.19125 C4.813125,6.83375 5.295625,7.3475 6.0425,7.3475 L6.05625,7.3475 Z M15.186875,14.950625 L15.186875,11.115 C15.186875,9.06 14.09,8.10375 12.626875,8.10375 C11.44625,8.10375 10.9175,8.753125 10.623125,9.20875 L10.623125,8.260625 L8.399375,8.260625 C8.42875,8.88875 8.399375,14.950625 8.399375,14.950625 L10.623125,14.950625 L10.623125,11.214375 C10.623125,11.015 10.6375,10.815 10.69625,10.6725 C10.856875,10.273125 11.2225,9.859375 11.836875,9.859375 C12.641875,9.859375 12.96375,10.4725 12.96375,11.371875 L12.96375,14.95125 L15.186875,14.950625 Z" id="Fill-3"></path>
                </g>
            </g>
        </g>
    </g>
</svg>